# xmcd CD database file
#
# Track frame offsets:
#	150
#	12200
#	28312
#	38025
#	54325
#	67000
#	79637
#	90172
#	108432
#	117492
#	128117
#	139417
#
# Disc length: 2235 seconds
#
# Revision: 1
# Processed by: cddbd v1.5.2PL0 Copyright (c) Steve Scherf et al.
# Submitted via: CDex 1.70beta2
#
DISCID=9c08b90c
DTITLE=Johnny Cash - Ring Of Fire  -  Disc 2  [Goldies]
DYEAR=1999
DGENRE=Country
TTITLE0=Sixteen Tons
TTITLE1=A Boy Named Sue
TTITLE2=Help Me
TTITLE3=City Of New Orleans
TTITLE4=The Long Black Veil
TTITLE5=Jackson
TTITLE6=If I Were A Carpenter
TTITLE7=Orange Blossom Special
TTITLE8=Big River
TTITLE9=There You Go
TTITLE10=I Got A Woman
TTITLE11=Impersonations
EXTD=YEAR: 1999
EXTT0=
EXTT1=
EXTT2=
EXTT3=
EXTT4=
EXTT5=
EXTT6=
EXTT7=
EXTT8=
EXTT9=
EXTT10=
EXTT11=
PLAYORDER=
